<mxfile host="app.diagrams.net" agent="Mozilla/5.0 (Windows NT 10.0; Win64; x64) AppleWebKit/537.36 (KHTML, like Gecko) Chrome/136.0.0.0 Safari/537.36" version="27.0.6">
  <diagram name="PÃ¡gina-1" id="eLURuQX9jifcbdVQeic9">
    <mxGraphModel dx="1426" dy="743" grid="1" gridSize="10" guides="1" tooltips="1" connect="1" arrows="1" fold="1" page="1" pageScale="1" pageWidth="827" pageHeight="1169" math="0" shadow="0">
      <root>
        <mxCell id="0" />
        <mxCell id="1" parent="0" />
        <mxCell id="2FMw9tIu3MUywaFxzHTK-3" value="HTTP-REST Clients" style="swimlane;whiteSpace=wrap;html=1;" parent="1" vertex="1">
          <mxGeometry x="60" y="230" width="140" height="230" as="geometry">
            <mxRectangle x="60" y="230" width="140" height="30" as="alternateBounds" />
          </mxGeometry>
        </mxCell>
        <mxCell id="3LL52IQnVMR4-zbJENKP-1" value="Web Browser" style="rounded=0;whiteSpace=wrap;html=1;" vertex="1" parent="2FMw9tIu3MUywaFxzHTK-3">
          <mxGeometry x="10" y="30" width="120" height="60" as="geometry" />
        </mxCell>
        <mxCell id="3LL52IQnVMR4-zbJENKP-2" value="Mobile App" style="rounded=0;whiteSpace=wrap;html=1;" vertex="1" parent="2FMw9tIu3MUywaFxzHTK-3">
          <mxGeometry x="10" y="95" width="120" height="60" as="geometry" />
        </mxCell>
        <mxCell id="3LL52IQnVMR4-zbJENKP-3" value="..." style="rounded=0;whiteSpace=wrap;html=1;" vertex="1" parent="2FMw9tIu3MUywaFxzHTK-3">
          <mxGeometry x="10" y="160" width="120" height="60" as="geometry" />
        </mxCell>
        <mxCell id="3LL52IQnVMR4-zbJENKP-5" value="Web Server (FastAPI)" style="swimlane;whiteSpace=wrap;html=1;" vertex="1" parent="1">
          <mxGeometry x="290" y="230" width="164" height="230" as="geometry">
            <mxRectangle x="60" y="230" width="140" height="30" as="alternateBounds" />
          </mxGeometry>
        </mxCell>
        <mxCell id="3LL52IQnVMR4-zbJENKP-12" value="Web Page" style="rounded=0;whiteSpace=wrap;html=1;" vertex="1" parent="3LL52IQnVMR4-zbJENKP-5">
          <mxGeometry x="-20" y="35" width="40" height="55" as="geometry" />
        </mxCell>
        <mxCell id="3LL52IQnVMR4-zbJENKP-19" style="edgeStyle=orthogonalEdgeStyle;rounded=0;orthogonalLoop=1;jettySize=auto;html=1;exitX=1;exitY=0.5;exitDx=0;exitDy=0;entryX=0;entryY=0.5;entryDx=0;entryDy=0;" edge="1" parent="3LL52IQnVMR4-zbJENKP-5" source="3LL52IQnVMR4-zbJENKP-13" target="3LL52IQnVMR4-zbJENKP-18">
          <mxGeometry relative="1" as="geometry" />
        </mxCell>
        <mxCell id="3LL52IQnVMR4-zbJENKP-13" value="API REST" style="rounded=0;whiteSpace=wrap;html=1;" vertex="1" parent="3LL52IQnVMR4-zbJENKP-5">
          <mxGeometry x="-20" y="97.5" width="40" height="122.5" as="geometry" />
        </mxCell>
        <mxCell id="3LL52IQnVMR4-zbJENKP-24" style="edgeStyle=orthogonalEdgeStyle;rounded=0;orthogonalLoop=1;jettySize=auto;html=1;entryX=0.5;entryY=1;entryDx=0;entryDy=0;" edge="1" parent="3LL52IQnVMR4-zbJENKP-5" source="3LL52IQnVMR4-zbJENKP-18" target="3LL52IQnVMR4-zbJENKP-21">
          <mxGeometry relative="1" as="geometry" />
        </mxCell>
        <mxCell id="3LL52IQnVMR4-zbJENKP-18" value="File Processing Module" style="rounded=0;whiteSpace=wrap;html=1;" vertex="1" parent="3LL52IQnVMR4-zbJENKP-5">
          <mxGeometry x="44" y="128.75" width="80" height="60" as="geometry" />
        </mxCell>
        <mxCell id="3LL52IQnVMR4-zbJENKP-21" value="Prompt Module" style="rounded=0;whiteSpace=wrap;html=1;" vertex="1" parent="3LL52IQnVMR4-zbJENKP-5">
          <mxGeometry x="44" y="37.5" width="76" height="52.5" as="geometry" />
        </mxCell>
        <mxCell id="3LL52IQnVMR4-zbJENKP-14" style="edgeStyle=orthogonalEdgeStyle;rounded=0;orthogonalLoop=1;jettySize=auto;html=1;exitX=1;exitY=0.5;exitDx=0;exitDy=0;entryX=0.125;entryY=0.143;entryDx=0;entryDy=0;entryPerimeter=0;" edge="1" parent="1" source="2FMw9tIu3MUywaFxzHTK-3" target="3LL52IQnVMR4-zbJENKP-13">
          <mxGeometry relative="1" as="geometry" />
        </mxCell>
        <mxCell id="3LL52IQnVMR4-zbJENKP-15" style="edgeStyle=orthogonalEdgeStyle;rounded=0;orthogonalLoop=1;jettySize=auto;html=1;entryX=1;entryY=0.5;entryDx=0;entryDy=0;" edge="1" parent="1" source="3LL52IQnVMR4-zbJENKP-13" target="2FMw9tIu3MUywaFxzHTK-3">
          <mxGeometry relative="1" as="geometry">
            <mxPoint x="200" y="388.75" as="targetPoint" />
            <Array as="points">
              <mxPoint x="250" y="345" />
              <mxPoint x="250" y="345" />
            </Array>
          </mxGeometry>
        </mxCell>
        <mxCell id="3LL52IQnVMR4-zbJENKP-16" style="edgeStyle=orthogonalEdgeStyle;rounded=0;orthogonalLoop=1;jettySize=auto;html=1;entryX=0.25;entryY=0.455;entryDx=0;entryDy=0;entryPerimeter=0;" edge="1" parent="1" source="3LL52IQnVMR4-zbJENKP-1" target="3LL52IQnVMR4-zbJENKP-12">
          <mxGeometry relative="1" as="geometry" />
        </mxCell>
        <mxCell id="3LL52IQnVMR4-zbJENKP-17" style="edgeStyle=orthogonalEdgeStyle;rounded=0;orthogonalLoop=1;jettySize=auto;html=1;" edge="1" parent="1" source="3LL52IQnVMR4-zbJENKP-12" target="3LL52IQnVMR4-zbJENKP-1">
          <mxGeometry relative="1" as="geometry">
            <Array as="points">
              <mxPoint x="250" y="290" />
              <mxPoint x="250" y="290" />
            </Array>
          </mxGeometry>
        </mxCell>
        <mxCell id="3LL52IQnVMR4-zbJENKP-20" value="Large Language Model Host (LMStudio)" style="swimlane;whiteSpace=wrap;html=1;startSize=40;" vertex="1" parent="1">
          <mxGeometry x="490" y="220" width="200" height="240" as="geometry" />
        </mxCell>
        <mxCell id="3LL52IQnVMR4-zbJENKP-22" value="API REST" style="rounded=0;whiteSpace=wrap;html=1;" vertex="1" parent="3LL52IQnVMR4-zbJENKP-20">
          <mxGeometry x="-20" y="47.5" width="40" height="122.5" as="geometry" />
        </mxCell>
        <mxCell id="3LL52IQnVMR4-zbJENKP-25" style="edgeStyle=orthogonalEdgeStyle;rounded=0;orthogonalLoop=1;jettySize=auto;html=1;exitX=1;exitY=0.5;exitDx=0;exitDy=0;" edge="1" parent="1" source="3LL52IQnVMR4-zbJENKP-21">
          <mxGeometry relative="1" as="geometry">
            <mxPoint x="480" y="294" as="targetPoint" />
            <Array as="points">
              <mxPoint x="475" y="294" />
            </Array>
          </mxGeometry>
        </mxCell>
        <mxCell id="3LL52IQnVMR4-zbJENKP-26" style="edgeStyle=orthogonalEdgeStyle;rounded=0;orthogonalLoop=1;jettySize=auto;html=1;entryX=0.95;entryY=0.143;entryDx=0;entryDy=0;entryPerimeter=0;" edge="1" parent="1" source="3LL52IQnVMR4-zbJENKP-22" target="3LL52IQnVMR4-zbJENKP-13">
          <mxGeometry relative="1" as="geometry">
            <Array as="points">
              <mxPoint x="430" y="345" />
              <mxPoint x="430" y="345" />
            </Array>
          </mxGeometry>
        </mxCell>
      </root>
    </mxGraphModel>
  </diagram>
</mxfile>
